<svg width="252" height="252" viewBox="0 0 252 252" fill="none" xmlns="http://www.w3.org/2000/svg">
<path d="M210 84H178.5V42H31.5C19.95 42 10.5 51.45 10.5 63V178.5H31.5C31.5 195.93 45.57 210 63 210C80.43 210 94.5 195.93 94.5 178.5H157.5C157.5 195.93 171.57 210 189 210C206.43 210 220.5 195.93 220.5 178.5H241.5V126L210 84ZM63 194.25C54.285 194.25 47.25 187.215 47.25 178.5C47.25 169.785 54.285 162.75 63 162.75C71.715 162.75 78.75 169.785 78.75 178.5C78.75 187.215 71.715 194.25 63 194.25ZM204.75 99.75L225.33 126H178.5V99.75H204.75ZM189 194.25C180.285 194.25 173.25 187.215 173.25 178.5C173.25 169.785 180.285 162.75 189 162.75C197.715 162.75 204.75 169.785 204.75 178.5C204.75 187.215 197.715 194.25 189 194.25Z" fill="#0E5E16"/>
</svg>
